<?xml version="1.0" encoding="utf-8"?>
<!-- Generator: Adobe Illustrator 24.3.0, SVG Export Plug-In . SVG Version: 6.00 Build 0)  -->
<svg version="1.1" id="Layer_1" xmlns="http://www.w3.org/2000/svg" xmlns:xlink="http://www.w3.org/1999/xlink" x="0px" y="0px"
	 viewBox="0 0 590.9 130.4" style="enable-background:new 0 0 590.9 130.4;" xml:space="preserve">
<style type="text/css">
	.st0{fill:#42833A;}
	.st1{fill-rule:evenodd;clip-rule:evenodd;fill:#42833A;}
	.st2{fill-rule:evenodd;clip-rule:evenodd;}
	.st3{fill:#675E5A;}
</style>
<path d="M201,21.4h4.2l18.4,42.8H219l-4.8-11.4H191l-4.9,11.4h-4.3L201,21.4z M203,25.7l-10.2,23.4h20.1L203,25.7z"/>
<path d="M269.1,57.4c-2.1,2.8-4.5,4.8-7.3,6c-2.8,1.2-5.7,1.8-9,1.8c-3.3,0-6.4-0.6-9.2-1.7c-2.8-1.1-5.2-2.7-7.1-4.7
	s-3.5-4.4-4.6-7.1c-1.1-2.8-1.7-5.8-1.7-9c0-3.3,0.6-6.3,1.7-9c1.1-2.7,2.7-5.1,4.6-7.1c2-2,4.4-3.6,7.1-4.7
	c2.8-1.1,5.8-1.7,9.2-1.7c3,0,5.7,0.5,8.3,1.5c2.6,1,4.8,2.7,6.8,5.2l-3.3,2.7c-1.4-2-3.1-3.5-5.2-4.4s-4.3-1.4-6.5-1.4
	c-2.8,0-5.4,0.5-7.7,1.5s-4.2,2.3-5.8,4s-2.8,3.7-3.7,6s-1.3,4.8-1.3,7.4c0,2.7,0.4,5.1,1.3,7.4c0.9,2.3,2.1,4.3,3.7,6
	c1.6,1.7,3.6,3,5.8,4c2.3,1,4.9,1.5,7.7,1.5c1.1,0,2.3-0.1,3.5-0.4c1.2-0.3,2.4-0.7,3.5-1.2s2.2-1.2,3.2-2.1c1-0.8,1.9-1.8,2.7-3
	L269.1,57.4z"/>
<path d="M279.6,21.4h4.1v18.9h0.4l21.2-18.9h5.6L288.8,41l23.4,23.2h-5.9L284.1,42h-0.4v22.1h-4.1V21.4z"/>
<path d="M320.5,21.4h4.1v42.8h-4.1V21.4z"/>
<path d="M339.6,21.4h26.8V25h-22.7v15.2H365v3.6h-21.3v16.7h23.7v3.6h-27.7V21.4H339.6z"/>
<path class="st0" d="M146.5,74.8h3.6v34.3H168v3.2h-21.5V74.8z"/>
<path class="st0" d="M186,74.8h3.7l16.2,37.5h-4l-4.2-10h-20.3l-4.3,10h-3.7L186,74.8z M187.6,78.6l-8.9,20.6h17.6L187.6,78.6z"/>
<path class="st0" d="M243.5,106.4c-1.8,2.4-4,4.2-6.4,5.2c-2.4,1.1-5,1.6-7.9,1.6s-5.6-0.5-8-1.5s-4.5-2.3-6.3-4.1
	c-1.7-1.7-3.1-3.8-4.1-6.3c-1-2.4-1.5-5.1-1.5-7.9c0-2.9,0.5-5.5,1.5-7.9s2.3-4.5,4.1-6.2c1.7-1.7,3.8-3.1,6.3-4.1
	c2.4-1,5.1-1.5,8-1.5c2.6,0,5,0.5,7.3,1.4s4.2,2.4,5.9,4.5l-2.9,2.4c-1.2-1.8-2.7-3.1-4.6-3.9c-1.9-0.8-3.8-1.2-5.7-1.2
	c-2.5,0-4.7,0.4-6.7,1.3c-2,0.8-3.7,2-5.1,3.5c-1.4,1.5-2.5,3.2-3.3,5.2s-1.1,4.2-1.1,6.5s0.4,4.5,1.1,6.5c0.8,2,1.8,3.8,3.3,5.2
	s3.1,2.7,5.1,3.5s4.3,1.3,6.7,1.3c1,0,2-0.1,3-0.3c1-0.2,2.1-0.6,3.1-1.1s1.9-1.1,2.8-1.8c0.9-0.7,1.7-1.6,2.4-2.6L243.5,106.4z"/>
<path class="st0" d="M250.6,74.8h3.6v16.5h0.3l18.6-16.5h4.9L258.6,92l20.5,20.4H274L254.5,93h-0.3v19.4h-3.6L250.6,74.8L250.6,74.8
	z"/>
<path class="st0" d="M284.2,74.8h23.5V78h-19.9v13.4h18.6v3.2h-18.6v14.6h20.8v3.2h-24.3V74.8H284.2z"/>
<path class="st0" d="M316.9,74.8h4.6l23.4,32.9h0.1V74.8h3.6v37.5H344l-23.4-32.9h-0.1v32.9h-3.6V74.8z"/>
<path class="st0" d="M359.6,74.8h11.1c1.4,0,2.9,0.1,4.4,0.3c1.5,0.2,2.8,0.7,4,1.4c1.2,0.7,2.1,1.7,2.9,3c0.7,1.3,1.1,3,1.1,5.1
	c0,1.9-0.6,3.6-1.7,5c-1.2,1.4-2.9,2.3-5.1,2.8v0.1c1.3,0.1,2.4,0.4,3.5,0.9c1,0.5,2,1.1,2.7,1.9s1.3,1.7,1.8,2.8
	c0.4,1.1,0.6,2.3,0.6,3.6c0,2.2-0.4,3.9-1.3,5.3c-0.8,1.4-1.9,2.4-3.2,3.2s-2.7,1.3-4.2,1.6c-1.5,0.3-2.9,0.4-4.2,0.4h-12.2V74.8
	H359.6z M363.2,91h7.4c1.8,0,3.3-0.2,4.5-0.7c1.2-0.4,2.1-1,2.7-1.6s1.1-1.3,1.3-2c0.2-0.7,0.3-1.4,0.3-2c0-1.3-0.2-2.4-0.7-3.3
	s-1.1-1.6-1.8-2.1c-0.8-0.5-1.6-0.9-2.7-1.1c-1-0.2-2.1-0.3-3.2-0.3h-7.9V91H363.2z M363.2,109.1h8.2c2.1,0,3.8-0.2,5.1-0.7
	c1.3-0.5,2.3-1.1,3-1.9c0.7-0.7,1.1-1.5,1.4-2.4c0.2-0.8,0.4-1.6,0.4-2.3c0-1.4-0.3-2.6-0.8-3.6s-1.2-1.8-2.1-2.4s-1.9-1.1-3-1.4
	s-2.2-0.4-3.3-0.4h-8.7v15.1H363.2z"/>
<path class="st0" d="M406.1,74.8h3.7l16.2,37.5h-4l-4.2-10h-20.3l-4.3,10h-3.7L406.1,74.8z M407.7,78.6l-8.9,20.6h17.6L407.7,78.6z"
	/>
<path class="st0" d="M463.6,106.4c-1.8,2.4-4,4.2-6.4,5.2c-2.4,1.1-5,1.6-7.9,1.6s-5.6-0.5-8-1.5s-4.5-2.3-6.3-4.1s-3.1-3.8-4.1-6.3
	c-1-2.4-1.5-5.1-1.5-7.9c0-2.9,0.5-5.5,1.5-7.9s2.3-4.5,4.1-6.2s3.8-3.1,6.3-4.1c2.4-1,5.1-1.5,8-1.5c2.6,0,5,0.5,7.3,1.4
	s4.2,2.4,5.9,4.5l-2.9,2.4c-1.2-1.8-2.7-3.1-4.6-3.9s-3.8-1.2-5.7-1.2c-2.5,0-4.7,0.4-6.7,1.3c-2,0.8-3.7,2-5.1,3.5
	s-2.5,3.2-3.3,5.2s-1.1,4.2-1.1,6.5s0.4,4.5,1.1,6.5c0.8,2,1.8,3.8,3.3,5.2s3.1,2.7,5.1,3.5s4.3,1.3,6.7,1.3c1,0,2-0.1,3-0.3
	c1-0.2,2.1-0.6,3.1-1.1s1.9-1.1,2.8-1.8c0.9-0.7,1.7-1.6,2.4-2.6L463.6,106.4z"/>
<path class="st0" d="M470.7,74.8h3.6v16.5h21.5V74.8h3.6v37.5h-3.6V94.5h-21.5v17.8h-3.6V74.8z"/>
<path class="st0" d="M510.3,74.8h23.5V78h-19.9v13.4h18.6v3.2h-18.6v14.6h20.8v3.2h-24.3L510.3,74.8L510.3,74.8z"/>
<path class="st0" d="M543,74.8h10.1c0.5,0,1.2,0,2.1,0.1s1.8,0.1,2.8,0.3c1,0.2,2,0.5,3.1,0.8c1,0.4,2,1,2.8,1.7s1.5,1.7,2.1,2.8
	s0.8,2.5,0.8,4.1c0,1.8-0.3,3.3-0.9,4.5c-0.6,1.2-1.4,2.1-2.4,2.8c-1,0.7-2,1.3-3.2,1.6s-2.3,0.6-3.3,0.7l11.2,18h-4.1l-10.8-17.8
	h-6.7v17.8H543V74.8z M546.6,91.3h7.6c1.9,0,3.4-0.2,4.6-0.7c1.2-0.5,2.1-1,2.7-1.7c0.7-0.7,1.1-1.4,1.3-2.2
	c0.2-0.8,0.4-1.5,0.4-2.1s-0.1-1.3-0.4-2.1c-0.2-0.8-0.7-1.5-1.3-2.2c-0.7-0.7-1.6-1.2-2.7-1.7c-1.2-0.5-2.7-0.7-4.6-0.7h-7.6V91.3z
	"/>
<path class="st1" d="M120.2,103.4H80.3V22.9l-9.8-0.1v89.9l49.7-0.1C120.2,112.6,120.2,105.4,120.2,103.4z"/>
<g>
	<path class="st2" d="M16.9,103.3h39.9V22.8l9.8-0.1v89.9l-49.7-0.1C16.9,112.5,16.9,105.3,16.9,103.3z"/>
</g>
<g>
	<path d="M75.5,52.2c2.8,0,5,2.2,5,5s-2.2,5-5,5s-5-2.2-5-5S72.7,52.2,75.5,52.2z"/>
</g>
<path d="M99.6,90.7L99.6,90.7c1.2,1,1.8,2.4,1.8,4c0,3.3-2.7,5.4-5.7,5.4c-3.1,0-5.7-2.1-5.7-5.5c0-1.5,0.7-3,1.8-3.9l0,0h-9.7v-1.9
	h19v1.9H99.6L99.6,90.7z M95.6,98.2c2.1,0,4.1-1.3,4.1-3.7c0-2.5-1.9-3.8-4.1-3.8s-3.9,1.4-3.9,3.8C91.7,96.7,93.6,98.2,95.6,98.2z"
	/>
<path d="M96.1,82.9c2,0,3.6-1.5,3.6-3.7c0-1.6-0.9-2.7-2.2-3.5l0.9-1.6c1.9,1.1,3,2.9,3,5.3c0,3.4-2.5,5.6-5.6,5.6
	c-3.2,0-5.9-2-5.9-5.5c0-3.7,2.9-5.6,6.1-5.4L96.1,82.9L96.1,82.9z M94.5,76c-1.6,0.3-2.8,1.6-2.8,3.3c0,1.7,1.3,3.2,2.8,3.5V76z"/>
<path d="M92.8,65.4c-0.6,0.3-1.1,0.8-1.1,1.6c0,0.7,0.5,1.4,1.2,1.4c1,0,1.4-1.3,1.9-2.6c0.5-1.3,1.3-2.6,3.1-2.6
	c2.1,0,3.5,1.7,3.5,3.9c0,1.9-1,3.4-2.8,4L98,69.2c1-0.5,1.7-1,1.7-2.3c0-1-0.7-1.8-1.7-1.8c-2.4,0-1.6,5.1-5,5.1
	c-1.8,0-3.1-1.6-3.1-3.4c0-1.3,0.9-2.5,2-3L92.8,65.4z"/>
<path d="M101.1,56.5v2.4H85.3v-2.4H101.1z"/>
<path d="M100.6,41.1c1.7,0,3.2,0,4.7,1.2c1.3,1.1,1.9,2.7,1.9,4.4c0,3.2-1.9,5.5-5,5.6v-1.9c2,0,3.3-1.6,3.3-3.6
	c0-3-2.1-3.7-4.5-3.7h-1.3l0,0c1.1,0.9,1.8,2.4,1.8,3.9c0,3.3-2.7,5.4-5.7,5.4S90,50.3,90,46.9c0-1.6,0.7-3,1.8-3.9l0,0h-1.5v-1.9
	H100.6z M95.6,50.4c2.1,0,4.1-1.3,4.1-3.7c0-2.5-1.9-3.8-4.1-3.8s-3.9,1.4-3.9,3.8C91.7,49,93.6,50.4,95.6,50.4z"/>
<path d="M91.6,34L91.6,34c-1-0.8-1.6-1.9-1.6-3.3c0-3.1,2.2-3.9,4.7-3.9h6.4v1.9H95c-1.8,0-3.3,0.1-3.3,2.4c0,2.7,2.4,2.8,4.3,2.8
	h5.1V36H90.3v-2H91.6L91.6,34z"/>
<g id="Background">
</g>
<g id="Guides">
</g>
<rect x="132.6" y="21.9" class="st3" width="1.2" height="91.4"/>
<path d="M171.6,64.6h-24.5V61h20.4V21.8h4.1V64.6z"/>
<g id="Background_1_">
</g>
<g id="Guides_1_">
</g>
</svg>
